<svg clip-rule="evenodd" fill-rule="evenodd" stroke-linejoin="round" stroke-miterlimit="2" viewBox="0 0 560 400" xmlns="http://www.w3.org/2000/svg"><g transform="matrix(3.46737 0 0 3.43202 -37.7884 73.4807)"><path d="m54.249 32.95c-1.451-.003-2.858.488-3.974 1.387v-1.246h-3.625v13.682h3.77v-8.746c.406-.511.923-.928 1.515-1.221.592-.292 1.244-.454 1.908-.473.514-.026 1.028.049 1.512.22v-3.509c-.365-.062-.735-.093-1.106-.094"/><path d="m21.378 42.598c1.076.882 2.443 1.363 3.852 1.354 1.015 0 1.798-.48 1.798-1.156 0-2.06-6.815-1.326-6.815-5.727 0-2.623 2.61-4.259 5.394-4.259 1.69.004 3.343.486 4.755 1.386l-1.763 2.647c-.779-.573-1.721-.898-2.697-.93-1.044 0-1.914.394-1.914 1.099 0 1.777 6.816 1.072 6.816 5.812 0 2.624-2.642 4.231-5.598 4.231-2.036-.019-4.015-.659-5.656-1.828z"/><path d="m45.041 39.805c0-3.808-2.752-6.995-6.642-6.995-4.176 0-6.845 3.328-6.845 7.137-.041.947.122 1.892.478 2.775.356.882.898 1.684 1.591 2.352.693.669 1.523 1.19 2.435 1.531.913.341 1.889.495 2.866.45 1.087.014 2.164-.198 3.16-.621.995-.423 1.886-1.048 2.611-1.832l-2.146-2.088c-.45.481-.995.868-1.603 1.14-.608.271-1.266.421-1.935.44-.94.03-1.857-.289-2.563-.891s-1.149-1.442-1.239-2.35h9.745c.06-.346.089-.697.087-1.048zm-9.658-1.635c.135-.678.511-1.289 1.061-1.727.551-.438 1.243-.675 1.955-.671.686.001 1.349.245 1.862.687s.841 1.05.923 1.711z"/><path d="m64.341 41.441 3.857-8.35h3.917l-6.468 13.682h-2.611l-6.468-13.682h3.916z"/><path d="m75.28 26.667c.477.008.941.153 1.334.416.392.263.696.632.872 1.062.177.429.218.899.12 1.352-.098.452-.332.866-.673 1.19-.34.324-.772.543-1.24.631-.469.087-.953.038-1.393-.141s-.816-.479-1.08-.864-.405-.837-.405-1.3c0-.311.064-.62.188-.908.125-.287.307-.548.537-.766.229-.219.501-.391.8-.506s.619-.172.94-.166z"/><path d="m73.395 33.091h3.77v13.682h-3.77z" fill-rule="nonzero"/><path d="m92.752 43.98c-.714.989-1.672 1.789-2.788 2.326-1.115.537-2.352.795-3.597.749-.982.024-1.959-.143-2.873-.491-.915-.348-1.748-.87-2.451-1.535s-1.261-1.46-1.641-2.338c-.381-.878-.576-1.821-.574-2.773s.201-1.894.585-2.77c.384-.877.945-1.67 1.65-2.332.706-.663 1.541-1.182 2.457-1.527.916-.344 1.894-.507 2.876-.479 1.136-.009 2.259.233 3.284.707s1.925 1.168 2.633 2.029l-2.669 2.284c-.372-.499-.859-.907-1.423-1.191s-1.189-.437-1.825-.445c-.505-.002-1.006.094-1.472.283-.467.189-.889.467-1.243.817-.354.349-.631.765-.817 1.22-.185.456-.274.943-.261 1.433-.017.497.073.992.263 1.454.19.461.476.88.841 1.23.365.349.8.622 1.279.801s.991.259 1.504.237c.67-.013 1.326-.184 1.912-.498.587-.315 1.085-.763 1.452-1.306z"/><path d="m106.448 44.6c-.726.785-1.616 1.41-2.612 1.833-.995.423-2.073.635-3.16.621-.976.044-1.952-.109-2.864-.451-.912-.341-1.741-.863-2.434-1.531-.693-.669-1.235-1.47-1.591-2.352-.356-.883-.518-1.828-.477-2.774 0-3.809 2.668-7.137 6.845-7.137 3.885 0 6.641 3.187 6.641 6.995.002.35-.027.699-.087 1.044h-9.745c.088.908.531 1.748 1.237 2.351.706.602 1.622.922 2.562.893.67-.019 1.328-.169 1.936-.44.608-.272 1.154-.659 1.603-1.14zm-3.509-6.43c-.082-.661-.41-1.269-.923-1.711s-1.175-.686-1.861-.687c-.713-.004-1.404.233-1.955.671s-.926 1.049-1.062 1.727z"/><path d="m108.295 46.773v-13.682h3.625v1.1c1.116-.897 2.522-1.386 3.972-1.381.93-.003 1.848.193 2.69.573.842.381 1.588.936 2.184 1.627 1.084 1.369 1.601 3.081 1.449 4.8v6.963h-3.77v-7.253c.053-.461.006-.928-.139-1.37s-.384-.85-.702-1.197c-.574-.515-1.335-.789-2.117-.762-.664.019-1.315.181-1.907.473-.592.293-1.109.71-1.515 1.22v8.889z"/><path d="m131.924 32.81c-1.654-.004-3.271.475-4.641 1.372-1.371.898-2.431 2.174-3.044 3.663s-.75 3.122-.394 4.687 1.189 2.991 2.391 4.092c.282.26.651.414 1.04.434.389.019.772-.097 1.081-.327 1.017-.734 2.251-1.13 3.519-1.13s2.502.396 3.519 1.13c.311.231.698.346 1.089.323.391-.022.762-.179 1.043-.444 1.193-1.097 2.021-2.514 2.377-4.069.356-1.556.225-3.179-.377-4.662s-1.647-2.758-3.002-3.662c-1.354-.903-2.957-1.394-4.601-1.409zm-.048 11.99c-.544.014-1.085-.079-1.59-.274s-.964-.488-1.349-.86c-.385-.373-.687-.818-.888-1.307-.202-.49-.298-1.014-.284-1.541 0-1.056.433-2.069 1.204-2.816s1.817-1.167 2.907-1.167 2.135.42 2.906 1.167 1.204 1.76 1.204 2.816c.015.527-.082 1.051-.283 1.541-.202.489-.504.934-.889 1.307-.384.372-.843.665-1.348.86-.506.195-1.047.288-1.59.274" fill="#62d84e"/><path d="m147.557 46.773h-2.808l-5.599-13.682h3.764l3.07 7.819 3.011-7.819h3.146l2.983 7.819 3.097-7.819h3.765l-5.599 13.682h-2.808l-3.011-7.791z"/><g fill-rule="nonzero"><path d="m162.029 45.227h-.318v.579h-.271v-1.585h.661c.069 0 .138.013.201.038.064.026.123.063.171.111.049.047.088.103.114.165.027.062.04.129.04.196-.001.099-.032.196-.09.278s-.14.146-.235.183l.372.617h-.295zm-.318-.234h.39c.073 0 .143-.028.194-.078.052-.05.081-.118.081-.189 0-.07-.029-.138-.081-.188-.051-.05-.121-.078-.194-.078h-.387z"/><path d="m161.991 43.571c.3 0 .594.086.843.248.25.161.445.391.56.659.115.269.145.565.087.85-.059.286-.203.548-.415.754-.213.206-.483.346-.778.403-.294.057-.599.028-.877-.084-.277-.111-.514-.3-.681-.542-.167-.241-.256-.526-.256-.817 0-.39.16-.763.445-1.039.284-.276.669-.431 1.072-.432zm0-.232c-.349 0-.689.1-.979.287-.289.188-.515.454-.648.766-.134.312-.169.655-.101.986s.236.635.482.874c.247.239.56.401.902.467s.696.032 1.018-.097.597-.348.79-.628c.194-.281.297-.611.297-.949 0-.452-.186-.886-.516-1.206s-.778-.5-1.245-.5z"/></g></g></svg>